<svg xmlns="http://www.w3.org/2000/svg" version="1.1" xmlns:xlink="http://www.w3.org/1999/xlink" xmlns:svgjs="http://svgjs.dev/svgjs" width="1920" height="1080" preserveAspectRatio="none" viewBox="0 0 1920 1080"><g mask="url(&quot;#SvgjsMask1402&quot;)" fill="none"><rect width="1920" height="1080" x="0" y="0" fill="rgba(215, 187, 230, 1)"></rect><path d="M220.26 0C220.26 76.6 62.75 253.64 0 253.64C-47.38 253.64 -58.94 67.88 0 0C51.19 -58.94 220.26 -50.22 220.26 0" stroke="rgba(181, 136, 205, 1)" stroke-width="2"></path><path d="M586.29 270C608.69 143.22 532.92 75.21 595.23 0C644.77 -59.79 702.62 0 810 0C945 0 945 0 1080 0C1215 0 1215 0 1350 0C1485 0 1485 0 1620 0C1755 0 1755 0 1890 0C2025 0 2092.5 -67.5 2160 0C2227.5 67.5 2160 135 2160 270C2160 405 2160 405 2160 540C2160 675 2160 675 2160 810C2160 945 2218.47 1003.47 2160 1080C2115.33 1138.47 2026.93 1123.93 1953.71 1080C1891.93 1042.93 1938.13 918 1890 918C1827.53 918 1822.63 1025.92 1732.5 1080C1687.63 1106.92 1676.25 1080 1620 1080C1485 1080 1485 1080 1350 1080C1215 1080 1215 1080 1080 1080C945 1080 945 1080 810 1080C675 1080 675 1080 540 1080C405 1080 405 1080 270 1080C135 1080 67.5 1147.5 0 1080C-67.5 1012.5 0 945 0 810C0 675 0 675 0 540C0 408.91 -66.49 344.32 0 277.83C68.51 209.32 135.8 261.35 270 270C405.8 278.75 411.45 312.63 540 312.63C569.59 312.63 581.07 299.53 586.29 270" stroke="rgba(181, 136, 205, 1)" stroke-width="2"></path><path d="M1080 225C1073.9 225 1071 249.91 1071 270C1071 274.26 1075.35 273.7 1080 273.7C1087.79 273.7 1095.88 276.2 1095.88 270C1095.88 251.85 1086.34 225 1080 225" stroke="rgba(181, 136, 205, 1)" stroke-width="2"></path><path d="M1620 242.31C1575.55 242.31 1530 240.13 1530 270C1530 321.47 1578.77 405 1620 405C1658.61 405 1689.68 324.46 1689.68 270C1689.68 243.12 1655.39 242.31 1620 242.31" stroke="rgba(181, 136, 205, 1)" stroke-width="2"></path><path d="M270 787.87C242.68 787.87 213.75 796.9 213.75 810C213.75 824.04 243.29 842.14 270 842.14C290.7 842.14 308.57 824.39 308.57 810C308.57 797.25 290.09 787.87 270 787.87" stroke="rgba(181, 136, 205, 1)" stroke-width="2"></path><path d="M1350 722.09C1309.31 722.09 1269.57 771.87 1269.57 810C1269.57 840.05 1309.55 858.46 1350 858.46C1391.77 858.46 1434 840.25 1434 810C1434 772.07 1391.52 722.09 1350 722.09" stroke="rgba(181, 136, 205, 1)" stroke-width="2"></path><path d="M42.63 0C42.63 14.82 12.15 49.09 0 49.09C-9.17 49.09 -11.41 13.14 0 0C9.91 -11.41 42.63 -9.72 42.63 0" stroke="rgba(181, 136, 205, 1)" stroke-width="2"></path><path d="M779.14 270C826.63 158.4 736.05 110.13 748.64 0C751.48 -24.87 779.32 0 810 0C855 0 895.57 -33.26 900 0C913.57 101.74 799.1 174.59 846 270C889.1 357.67 961.46 322.2 1080 366.16C1213.46 415.66 1230.33 392.2 1350 456.92C1391.05 479.12 1401.43 505.88 1401.43 540C1401.43 559.98 1370.26 545.26 1350 565.12C1232.52 680.26 1125.96 703.77 1125.96 810C1125.96 893.71 1238.61 876.48 1350 945C1458.08 1011.48 1564.9 1043.45 1564.9 1080C1564.9 1110.95 1457.45 1080 1350 1080C1215 1080 1215 1080 1080 1080C945 1080 945 1080 810 1080C710.41 1080 675.34 1129.16 610.82 1080C540.34 1026.3 580.68 974.69 540 874.29C525.98 839.69 531.04 831.61 501.43 810C396.04 733.07 390.66 685.33 270 677.21C139.95 668.46 74.12 813.91 0 776.25C-60.88 745.31 0 658.13 0 540C0 457.83 -51.03 403.9 0 375.65C83.97 329.17 139.21 362.78 270 390.54C409.21 420.09 420.46 518.56 540 490.26C675.03 458.29 722.31 403.53 779.14 270" stroke="rgba(181, 136, 205, 1)" stroke-width="2"></path><path d="M1350 27C1337.15 19.92 1337.14 9.44 1337.14 0C1337.14 -4.06 1343.57 0 1350 0C1485 0 1485 0 1620 0C1755 0 1755 0 1890 0C2021.54 0 2022.99 -3.43 2153.08 0C2157.99 0.13 2159.87 2.2 2160 7.11C2163.33 137.2 2160 138.56 2160 270C2160 356.12 2185.08 365.79 2160 442.24C2140.79 500.79 2071.41 493.04 2071.41 540C2071.41 583.01 2142.66 569.32 2160 622.17C2186.95 704.32 2160 716.09 2160 810C2160 945 2203.98 988.98 2160 1080C2138.75 1123.98 2064.09 1122.46 2029.55 1080C1954.26 987.46 1995.62 938.74 1940.34 810C1925.85 776.24 1922.55 755 1890 755C1810.03 755 1792.03 765.59 1715.29 810C1657.03 843.71 1657.03 911.25 1620 911.25C1591.38 911.25 1584 859.45 1584 810C1584 773.61 1604.81 776.04 1620 739.57C1661.06 641.04 1642.69 631.19 1696.5 540C1777.69 402.4 1791.9 409.74 1890 282C1895.57 274.74 1903.85 276.2 1903.85 270C1903.85 263.45 1898.93 260.09 1890 256.5C1757 202.98 1752.48 212.07 1620 155.77C1482.48 97.32 1478.58 97.81 1350 27" stroke="rgba(181, 136, 205, 1)" stroke-width="2"></path><path d="M0 918C85.86 893.47 140.69 948.55 270 1002.86C333.54 1029.55 385.71 1058.95 385.71 1080C385.71 1097.52 327.86 1080 270 1080C135 1080 84.38 1130.63 0 1080C-50.63 1049.63 -49.14 932.04 0 918" stroke="rgba(181, 136, 205, 1)" stroke-width="2"></path><path d="M1620 69.23C1552.77 54.21 1497.27 18.5 1497.27 0C1497.27 -16.11 1558.64 0 1620 0C1755 0 1755 0 1890 0C1935 0 1980 -18.31 1980 0C1980 25.57 1947.09 76.77 1890 87.75C1767.09 111.39 1749.13 98.08 1620 69.23" stroke="rgba(181, 136, 205, 1)" stroke-width="2"></path><path d="M2076.92 270C2076.92 231.67 2135.8 184.74 2160 184.74C2177.34 184.74 2160 227.37 2160 270C2160 297.93 2174.88 325.86 2160 325.86C2133.34 325.86 2076.92 302.23 2076.92 270" stroke="rgba(181, 136, 205, 1)" stroke-width="2"></path><path d="M0 473.48C108.52 461.85 137.06 484.87 270 511.07C305.81 518.13 337.5 526.04 337.5 540C337.5 553.79 304.85 556.69 270 566.56C136.1 604.5 100.51 645.52 0 635.63C-34.49 632.24 0 587.82 0 540C0 506.74 -26.48 476.32 0 473.48" stroke="rgba(181, 136, 205, 1)" stroke-width="2"></path><path d="M950.87 540C950.87 489.38 1014.83 458.63 1080 458.63C1148.46 458.63 1218.14 488.81 1218.14 540C1218.14 605.65 1147.8 692.31 1080 692.31C1014.16 692.31 950.87 606.22 950.87 540" stroke="rgba(181, 136, 205, 1)" stroke-width="2"></path><path d="M1809 540C1809 487.81 1850.33 432 1890 432C1928.8 432 1965.94 487.67 1965.94 540C1965.94 586.67 1928.69 630 1890 630C1850.22 630 1809 586.81 1809 540" stroke="rgba(181, 136, 205, 1)" stroke-width="2"></path><path d="M2054.75 810C2063.9 749.67 2128.1 720 2160 720C2180.73 720 2160 765 2160 810C2160 945 2182.71 967.71 2160 1080C2155.41 1102.71 2114.12 1102.39 2105.39 1080C2061.49 967.39 2036.6 929.67 2054.75 810" stroke="rgba(181, 136, 205, 1)" stroke-width="2"></path><path d="M721.48 1080C721.48 1011.95 731.77 918.99 810 887.14C911.03 846.01 948.13 898.79 1080 934.05C1218.13 970.99 1218.24 976.14 1350 1031.54C1391.81 1049.12 1427.14 1066.88 1427.14 1080C1427.14 1091.11 1388.57 1080 1350 1080C1215 1080 1215 1080 1080 1080C945 1080 945 1080 810 1080C765.74 1080 721.48 1108.38 721.48 1080" stroke="rgba(181, 136, 205, 1)" stroke-width="2"></path></g><defs><mask id="SvgjsMask1402"><rect width="1920" height="1080" fill="#ffffff"></rect></mask></defs></svg>