<svg id="visual" viewBox="0 0 1920 1080" width="1920" height="1080" xmlns="http://www.w3.org/2000/svg" xmlns:xlink="http://www.w3.org/1999/xlink" version="1.1"><rect x="0" y="0" width="1920" height="1080" fill="#B588CD"></rect><g fill="none" stroke="#724786" stroke-width="5"><circle r="127" cx="665" cy="399"></circle><circle r="7" cx="1079" cy="462"></circle><circle r="121" cx="336" cy="372"></circle><circle r="83" cx="1263" cy="228"></circle><circle r="90" cx="941" cy="185"></circle><circle r="64" cx="1413" cy="639"></circle><circle r="60" cx="1459" cy="927"></circle><circle r="90" cx="285" cy="678"></circle><circle r="53" cx="1731" cy="162"></circle><circle r="106" cx="565" cy="705"></circle><circle r="88" cx="1180" cy="786"></circle><circle r="83" cx="1765" cy="605"></circle><circle r="67" cx="922" cy="936"></circle><circle r="47" cx="185" cy="950"></circle><circle r="41" cx="1551" cy="360"></circle><circle r="23" cx="854" cy="649"></circle><circle r="107" cx="1748" cy="898"></circle><circle r="99" cx="140" cy="142"></circle><circle r="121" cx="496" cy="131"></circle></g></svg>